<svg xmlns="http://www.w3.org/2000/svg" width="237.27" height="149.04" viewBox="0 0 237.27 149.04"><path d="M178.642 134.442c3.211-.622 7.54-1.52 10.561-2.993.829-.615 1.542-1.2 2.091-1.673.23-.341.787-1.176 2.124-3.193a14.387 14.387 0 0 0 1.991-8.417 767.844 767.844 0 0 1-4.854-8.564c-.313-.237-.723-.493-.936-.4-.373.163-.839.373-1.026-.793a14.052 14.052 0 0 0-1.875-3.568 4.219 4.219 0 0 0-2.279.014c-1.255.418-7.528 7.214-10.246 11.292a86.875 86.875 0 0 1-9.286 11.476l.581.433a51.6 51.6 0 0 0 9.143 5.82 7.7 7.7 0 0 0 4.011.566zm19.59-11.287c-.2-.334-.5-.885-.875-1.589-.416-.728-.932-1.626-1.5-2.617a87.399 87.399 0 0 0 2.375 4.206zm36.071 17.178c0 .013.01.026.013.038s.013-.016-.013-.038zm-23.558-12.907c2.446 2.151 4.259.717 5.566.633s5.988-3.036 9.783-5.566 4.6-2.783 7.59-8.349 2.7-7.8 3.373-10.668-.464-4.385-.885-5.608a11.357 11.357 0 0 0-1.989-2.931c1.013 1.7.811 3.165 1.1 4.9.488 2.927-1.045 4.74-1.93 6.894a11.576 11.576 0 0 1-1.691 5.053c-1.265 1.729-8.644 4.09-12.144 5.186s-11.005.464-12.819 0-4.174-3.458-6.662-8.18-4.259-12.481-4.259-12.481a40.1 40.1 0 0 0 1.392-14.674c-.337-4.427-5.693-7.548-5.693-7.548a12.879 12.879 0 0 1 .59-2.151c.464-1.307.464-2.024-1.223-2.108 1.309.32-7 1.153-14.807 16.731-7.181 14.331-15.453 40.958-16.731 45.13 1.69-1.89 7.694-7.341 7.776-7.865.1-.672 1.15-.568 1.15-.568a32.16 32.16 0 0 1 2.8-5.03 39.812 39.812 0 0 1 4.636-5.739c5.21-5.332 7.454-9.209 8.974-8.973a10.95 10.95 0 0 1 1.37.312 5.055 5.055 0 0 0-.245-.312s.34.2.828.5c1.438.505 2.992 1.378 3.464 2.717a5.212 5.212 0 0 1 .506 1.2c1.384 3.073 4.949 10.181 6.786 13.634.82 1.433 1.258 2.209.969 1.745a50.487 50.487 0 0 0 5.086 7.152c4.132 4.638 7.969 5.229 13.493 7.337s7.8 1.307 12.734 1.771c3.956.372 4.576.662 4.667.763-.437-1.4-4.278-3.941-12.553-5.7a35.97 35.97 0 0 1-14.969-6.873c-1.56-1.223-2.952-5.06-2.952-5.06a3.642 3.642 0 0 1 .59.3 51.568 51.568 0 0 1 6.333 4.427zm-7.526-9.51l-.488-.864s9.758 5.456 16.449 2.833a99.9 99.9 0 0 0 9.549-4.157s-7.737 6.761-15.752 5.367-9.754-3.179-9.754-3.179zm-4.9 5.392l-.006-.01zm3.487 10.864a2.333 2.333 0 0 0-.431-1.5 5.836 5.836 0 0 0-1-.73c-1.754-.784-7.63-1.7-8.96-1.9a9.986 9.986 0 0 1-2.213 1.41c-2.349 1.742-5.614 3.706-8.632 3.934a12.876 12.876 0 0 1-5.94-1.508c-4.409-1.641-9.143-5.82-9.143-5.82h-1.014a23.6 23.6 0 0 1-5.336 4.192c-.438.224-.307-.023.165-.552.4-1.331 1.483-4.954 2.892-9.547 0 0-7.553-5.719-11.038-6.836s-13.731-6.066-15.474-14.779a32.551 32.551 0 0 0 16.1 13.94c2.718 1.115 10.41 7.674 10.41 7.675 3.3-10.745 8.366-26.793 10.535-31.2 2.479-5.035 6.77-15.3 12.133-19.465a60.386 60.386 0 0 1-2.575-.73 6.75 6.75 0 0 1-2.4-1.384 6.6 6.6 0 0 1-3.852-3.9c-1.256-3.137-14.358-15.543-16.8-17.7s-7.179-4.67-9.828-7.04-6.97-4.461-7.946-4.391c-.955.068-13.739 2.944-17.542 5.157 6.325-3.851 12.207-4.682 14.824-5.715 2.649-1.046 1.952-.348 4.461 0s6.761 3.973 8.016 5.228a58.6 58.6 0 0 0 7.876 5.437c2.37 1.394 7.109 6.482 9.41 8.782 1.57 1.57 5.12 5.607 7.216 8.012a50.746 50.746 0 0 1-3.1-8.677 7.657 7.657 0 0 0-1.6-3.711c-.548-.928.211-2.783-.843-4.512s-.717-1.434-.843-3.163-1.982-5.861-3.795-9.614-9.572-9.994-11.723-11.216-5.355-4.68-9.7-7.885c-3.648-2.692-10.538-4.967-12.65-5.626.14 1.045.35 2.534.583 3.909.418 2.457-.366 7.057-.366 7.057-.1-1.411.1-2.4 0-4.914a42.036 42.036 0 0 0-.81-6.233l-.039-.012-.082-.52c-.2-1.269-.711-4.492-.845-5.3-.169-1.012-.464-4.006-.928-2.319a14.56 14.56 0 0 1-2.235 3.921 16.61 16.61 0 0 0-12.692.759 23.793 23.793 0 0 1-1.181-2.108c-.337-.759 0-1.223-.717-.253s-1.647 4.889-1.647 4.889a82.14 82.14 0 0 0-7.627 4.779c-2.339 1.83-4.373 1.118-7.22 2.237s-3.966 4.881-6.61 8.644a5.5 5.5 0 0 0-.881 4.038 7.547 7.547 0 0 1 .155.932 11.481 11.481 0 0 1 .294 1.733c.375 1.585 1.183 3.254 3.283 3.4 3.9.279 11.152-.418 12.686 0a45.788 45.788 0 0 1 8.294 3.694c1.464 1.046-6.761-2.44-9.758-2.718s-13.144.4-14.259-1.223a5.591 5.591 0 0 1-.706-2.318 1.778 1.778 0 0 1-.735.085 2.655 2.655 0 0 0-2.734 2.06 3.972 3.972 0 0 0 0 2.169 4.37 4.37 0 0 0-1.6 3.911c.321 2.5.99 4.3.784 4.554a29.128 29.128 0 0 0-2.644 2.822c-.577.9-2.245 2.886-2.566 4.554s-.449 3.143.577 4.361 2.5 3.271 2.822 3.463.834 1.732 1.539 1.539.9-.257 1.09.577.385 1.86 1.283 1.924.9.257 2.053.9 3.334.459 5.772-1.983 2.886-2.955 2.886-2.955-4.1 5.387-5.708 5.708a7.12 7.12 0 0 1-4.233-.449 23.8 23.8 0 0 1-2.63-2.565 17.622 17.622 0 0 1-3.527-3.079c-1.026-1.347-2.694-3.143-2.886-4.3s-.77-3.656 1.09-5.772 4.1-4.746 4.1-4.746-1.283-3.976-.834-5.387a25.932 25.932 0 0 1 1.525-3.231c-7.536 1.192-23.824-6.267-27.935-9.523-4.259-3.373-16.318-9.192-26.818-12.65s-14.21-2.783-14.336-2.825 1.687.8 8.138 3.457 4.006 2.994 9.277 7.674 9.572 12.27 11.6 15.264.843 8.18-.422 12.945-7.674 8.476-16.234 13.746-16.74 5.06-21.294 5.524-5.566-.464-5.566-.464c.759 2.741 10.246 6.915 18.469 9.277s26.185 4.975 27.7 6.2 4.6 1.56.675 8.982-20.83 10.162-25.216 10.963-1.644.928-1.644.928c5.827 2.785 25.227 3.085 29.865 2.659s11.6-1.265 15.475-.717a5.148 5.148 0 0 1 2.921 1.183 17.78 17.78 0 0 1 2.241-5.767c1.464-2.3 4.786-10.875 6.993-14.22s3.462-9.1 7.853-10.873 8.309-3.032 11.369-2.823a34.576 34.576 0 0 0 7.235-.523 7.253 7.253 0 0 1 4.324 1.115 28.033 28.033 0 0 1-.867-4.809 5.647 5.647 0 0 1 1.185-3.067s-5.506-9.549-5.506-14.079l-3.276-8.852-2.23-.937h2.3s4.168 8.673 4.071 10.137 1.157 6.97 5.548 14.01c3.276.209 6.134 3.108 6.134 3.108l5.785 2.329 5.506-.512 4.4.512s5.639-2.021 6.615-2.329 0 1.816 1.533 1.144 13.182-3.122 13.182-3.122l-10.4 3.331-4.316.463a2.775 2.775 0 0 0-.58-.882c-.371-.349-4.717 1.324-5.693 1.952s-2.44-.279-5.018-.279-5.715.627-6.975 0-4.8-1.952-4.8-1.952c-.261-1.5-5.642-3.548-5.48-3.749-.39.082-1.635.614-1.281 4.1l2.161.812h-1.394v2.115l-.767-2.927c.189 1.857.292 2.944.349 3.581a35.844 35.844 0 0 1 5.34 3.807c2.453 2.032-5.863-4-9.313-3.881s-6.9 1.476-9.514.953-8.15 1.464-10.244 3.973-8.68 12.442-10.667 17.669-1.359 4.706-1.359 4.706 2.4 8.258 10.455 6.585c2.579-.536 4.159-.911 5.117-1.174.78-.358 1.261-.609 1.261-.609s.772.051-1.261.609c-2.286 1.05-7.146 3.026-10.031 2.324-3.869-.941-5.541-7.735-5.541-7.735l-1.673 2.194a14.4 14.4 0 0 0-2.112 4.567 4.249 4.249 0 0 1 .034 2.441c.929 2.82 3.752 11.916 10.757 14.53s7.632 1.568 9.514.732a16.858 16.858 0 0 0 6.587-5.541 23 23 0 0 0 2.972-6c.059-.714.034-1.021.06-.688a2.6 2.6 0 0 1-.06.688c-.181 2.2-1.155 8.281-6.84 11.44a13.7 13.7 0 0 1-8.657 1.784l-.355 2.307-.226.046c-.4 1.882-.784 4.2-.46 4.976.575 1.375 1.662 2.589 3.132 2.269s2.493.7 3.643.447 6.455-.192 7.734-.767 1.981-.767 3.26-1.406 1.963-.639 2.388-1.534.041-1.087 1.064-1.79 1.97-1.819 1.7-4.431c-.087-.546-.231-1.4-.355-1.9-.192-.769.289-.769.722-1.587s-1.347-2.886-2.453-4.762-.819-1.437.625-2.357c6.259-3.987 27.58-15.707 28.033-15.654s.587.72.053.694-1.281.827-1.6 1.468-1.014.881-.534 1.254 1.228.427 1.041.88-.694.294-.507 1.014.427.16.854.667-.16.16-.267.854.4 1.014 1.041 1.254 2.909.374 1.067 1.735-16.839 6.992-19.08 7.766-2.216.747-.668 1.094 12.3-.507 13.637-.694a7.634 7.634 0 0 1 1.416-.216c-.08-.709.4-1.2.972-1.783a3.849 3.849 0 0 0 .27-.314 30.827 30.827 0 0 1 1.546-2.878c1.284-2.023 2.789-2.994 2.666-4.1a3.426 3.426 0 0 1-.967 3.076 28.359 28.359 0 0 0-3.245 3.9 12.667 12.667 0 0 1-1.154 2.172.766.766 0 0 1 .017.381c-.08.747-.027.587.267.694s.667.133.187.614-.214 1.414-.214 1.414.614.373.374.747.133.934.64.988.133.32.226.619c.281.9 4.666 2.213 3.367 2.309-1.135.084-21.6.9-26.738 1.108-.147.91-.543 2.922-1.275 3.681-.959.994-1.087 1.633-2.045 2.783a11.556 11.556 0 0 1-7.095 3.451c-3.132.192-7.67.511-8.692 0s-3.388.256-4.858-1.087c-1.011-.923-.781-4.354-.144-6.969-2.306.475-10.182 2.141-12.012 3.074-2.151 1.1-1.644 3.078-.633 8.054s1.181 4.512 20.535 6.494 44.654.127 66.454 0a287.129 287.129 0 0 0 41.566-3.376c2.4-.337 3.331-2.024 3.373-2.952.041-.908.083-3.15.124-5.222a19.364 19.364 0 0 0-6.159 1c-4.248 1.242-32.31 1.83-52.756 2.1-8.854.326-16.735.44-21.789.2 0 0 9.525-.044 21.789-.2 22.462-.827 51.2-3.012 56-4.276a8.946 8.946 0 0 0 3.046-1.233zM98.232 55.944a3 3 0 0 1-.82 1.924l-.143-.9a1.941 1.941 0 0 0 0-1.475c-.321-.834-1.668-1.219-1.668-1.219a9.676 9.676 0 0 0-.257-1.539 3.476 3.476 0 0 0-1.8-1.924 3.626 3.626 0 0 0-2.116 0s.385-.77.769-1.411-.385-1.539-1.219-2.662-2.309-.673-2.949-.673a5.693 5.693 0 0 0-1.752.466c-.862.465-1.584.881-1.584.881a6.629 6.629 0 0 1 1.584-.881 15.872 15.872 0 0 1 2.649-1.235 3.953 3.953 0 0 1 3.4 1.6 12.346 12.346 0 0 1 .77 3.015s.641-.321 1.667.641a7.648 7.648 0 0 1 1.539 3.143s1.994 1.03 1.93 2.249zm32.095-37a1.9 1.9 0 0 1-.162 1.393 4.309 4.309 0 0 1-1.393 1.393 1.894 1.894 0 0 1-.778 0zm-13.124 1.072c.014-.1 3.176 2.56 3.176 2.56a1.215 1.215 0 0 1-1.458 0 9.455 9.455 0 0 1-1.49-1.329 1.67 1.67 0 0 1-.228-1.231zm-1.879 3.986a6.282 6.282 0 0 0 3.31 1.1 7.348 7.348 0 0 1 3.948 1.62 20.4 20.4 0 0 0 2.722 2.009 11.948 11.948 0 0 1 1.2-2.462c.81-1.264.907-1.069 1.75-1.555a27.4 27.4 0 0 0 3.046-2.333 42.3 42.3 0 0 0-1.166 5.865 12.781 12.781 0 0 1-1.3 5.022 9.411 9.411 0 0 0-.972 2.819c-.259 1.069-.972.68-2.236 1.3s-2.852.259-4.31 0-2.689-2.527-3.759-3.564a16.7 16.7 0 0 1-2.106-3.24c-.486-.68-.421-5.055-.421-5.832s-1-1.62-1-1.62a6.474 6.474 0 0 1 1.294.87zm17.99 27.566l-4.81 4.055-3.72-2.437-3.848 3.4-2.95-4.285-4.49 1.271s-2.5-4.169-2.694-5.2-4.682-2.694-4.682-2.694l5.131-2.822 7.383 6.036 2.173-2.38v1.09l2.116-.192.193-.9 1.09 2.38 8.53-2.188 4.6 4.233zm-20.632 21.887l-.767 3.013-.279-3.888 2.392.875zm28.647-.875l-2.161 1.937-.488 3.094-.348-3.567zm-1.185 7.04a18.4 18.4 0 0 0 6.343-6.761c.531-1.124 3.72-3.27 7.08-5.3-1.891-.345-7.255-2.433-7.916-14.987-.279-5.3-.349-5.785-.349-5.785a14.084 14.084 0 0 1-5.109-7.337 2.297 2.297 0 0 1-.049-.191c.015.064.033.127.049.191.222.765 1.337 3.746 5.889 6.988a35.342 35.342 0 0 0 .963 8.643c1.078 4.447 2.092 10.586 6.691 12.376 1.98-1.19 4-2.332 5.565-3.193a25.116 25.116 0 0 1 2.802-1.509s-1.137.6-2.8 1.516c-3.371 2.055-7.441 5.115-9.258 6.29-2.37 1.533-1.438.7-3.96 4.461s-5.589 6.343-7.82 6.064-4.043-.089-4.949-.951c-.003.001 4.387 1.02 6.828-.512zm-2.091 3.067l.279.07c-.02 0-.011.017.019.059 3.706 1.7 5.591 7.12 5.591 7.12-.811-2.2-5.2-6.569-5.591-7.12-.098-.043-.197-.087-.298-.127zm.279 6.134l-2.649 1.434s-6.413 3.168-7.876 4a9.066 9.066 0 0 1 2.509-2.091c1.952-1.25 8.016-3.341 8.016-3.341zm-2.37-15.365l-2.406 2.122-.243 3.9-.836-4.391zm-1.324 12.089l-3.339 1.534s-4.468 2.161-6.21 3.175c0 0 4.321-2.9 4.6-3.244s4.949-1.463 4.949-1.463zm-4.949-10.455l-7.092.488-.506 4.556-.364-5.044zm-5.82 9.583a21.877 21.877 0 0 1 3.45-2.3 6.651 6.651 0 0 1 3.98 0 17.964 17.964 0 0 1-2.377.315c-.767 0-2.788 1.046-3.833 1.394a6.065 6.065 0 0 0-1.22.591 69.928 69.928 0 0 0-2.142 1.709 12.409 12.409 0 0 1 2.142-1.707zm-7.719-11.452l3.5 1.4-2.667-.511-.83 4.391zm17.407 37.156c-.105-.318-.04-.229.024.089a.917.917 0 0 0-.025-.088zm-1.295-12.022a1.207 1.207 0 0 1-1.319-.4s-3.689.972-4.714-1.568c0 0-4.146-3.189-2.683-4.548 0 0-.5-.2-1.118-.529.368 1.2.325 3.623-2.149 8.318-4.148 7.87-20.283 10.037-20.283 10.037a40.065 40.065 0 0 1 5.785-1.952c2.718-.627 6.691-.906 12.182-6.413s2.88-11.044 2.88-11.044a1.852 1.852 0 0 1-.652-.979s-8.312-2.718-1.1-6.691c2.088-1.15-2.927 2.718-1.673 4.182a5.2 5.2 0 0 0 3.555 1.464s.836 3.137 3.346 2.614c0 0 .1 3.868 2.718 4.182 0 0 1.29 3.346 3.9 2.927a2.862 2.862 0 0 0 1.319.4 6.21 6.21 0 0 0 1.294-.817 15.32 15.32 0 0 1 4.357-2.091c1.533-.418 1.046.418 3 0s3.973-2.161 5.171-2.927 2.148-.976 3.123-1.952a17.549 17.549 0 0 1 3.624-2.718c2.509-1.673 17.425-9.828 19.8-11.083s1.812-3.9 1.464-4.949a28.589 28.589 0 0 1-.558-5.785 17.572 17.572 0 0 0-.906-4.182l1.185 1.324s2.23 9.549 1.812 11.347-1.6 2.454-3.624 3.43-17.774 10.594-19.322 11.431-3.121 2.3-4.724 3.346-3.624 1.743-5.3 3-2.23 1.115-3.485.836-1.255-1.115-3.833.767a4.592 4.592 0 0 1-3.072 1.023zm7.5 29.408c-.48.027.694-1.254 2.295-2.669s1.885-5.151 1.885-5.151a2.648 2.648 0 0 1 2.14.56c.475.454 1.286-.454 3.181-.4s11.929 4.7 11.929 4.7l-1.041 2.963s-19.909-.032-20.389-.005zm69.173-36.893c2.909-1.855 8.054-3.458 12.65-1.265s9.277 9.066 10.668 10.963c1.281 1.747 1.1.387 1.191 2.465a17.771 17.771 0 0 0 .586-5.565c-.418-2.858-4.225-6.561-4.226-6.561q-.289-.211-.588-.416c-3.879-2.656-10.584-6.789-11.764-6.7s-.928.843-1.476 1.392-4.512 1.518-7.464 3.458-2.909 3.247-2.825 3.879.339.204 3.248-1.652zM78.267 126.422c-.651-.343-1.165-.66-1.516-.867-1.541-.906-7.493-7.4-8.834-11.9-1.741 2.67-5.657 2.712-13.523 4.408-8.6 1.855-18.047 5.018-19.9 6.03s1.054 1.138 2.361.843a12.751 12.751 0 0 1 6.409.337c3.331.843 15.517 1.181 26.649 1.349a74.553 74.553 0 0 0 8.354-.2z"/></svg>