<svg xmlns="http://www.w3.org/2000/svg" width="157.2" height="179.51" viewBox="0 0 157.2 179.51"><path d="M125.768 118.89l-1.3-4.24-1.2.873a18.223 18.223 0 0 1 .8 3.4l.4 1.694-.922 2.236-1.7-.146-1.6-1.116-1.486 4.117-.358-.43 1.941 2.329 2.983-.3s1.7-5.239 2.458-8.366zm-3.923 3.329l1.424.194a10.689 10.689 0 0 0 .808-2.911 3.765 3.765 0 0 0-.01-.582l-.8-3.4 1.2-1.456 1.332 4.806a15.672 15.672 0 0 0 .316-1.578c.287-2.3-2.256-7.341-2.256-7.505s-2.256-4.388-2.707-5.414a1.183 1.183 0 0 0-.977-.7l1.671 2.822-2.5 2.232-2.757-2.521-.857.774-1.65 6.938-.381.825-.735 1.261 2.378-9.607 1.239-.83a32.647 32.647 0 0 0-.026-3.286l-.284-2.31c-.411-3.014-1.111-7.615-1.111-7.615l.187.092-.152-1.237-3.392-8.479 3.441 7.315.631 2.66 1.3.634a2.1 2.1 0 0 0 .861-1.517c.123-1.066.246-3.4.246-3.4l1.025.287 3.978 1.025 2.953-2.133-.9-.854-6.275-.436.828-3.138 2.12-.7 1.279-1.351.087-2.789c0 .131.479 2.963.479 2.963l-1.133 1.434-2.435.919-.7 2.353 4.489.218h1.752l.406 1.377h.595s1.948-.533 1.989-.9a20.1 20.1 0 0 0-.246-3.732c-.205-.574-1.189-3.732-1.189-3.732l-.914-1.857s-1.787.174-1.917.218-3.356 1.046-3.356 1.046l-1.291 1.264c.224.027.381.044.381.044l-3.2 4.125-4.416-13.421.465-2.208-1.8-3.719h-2.266l.813-.988-.581-3.6-4.125-.407-1.859-.116v-3.854l-2.465 2.792-.882 6.174.3.8 1.482.248v.711l-1.525-.174s-.654-1.569-.655-1.582.785-6.523.785-6.523l1.22-1 1.851-2.089 1.521-6.194 3.138-1.394.942-2.05.49-6.231-5.273-7.408s-4.491-.073-5.547-.019l-.2.019a1.434 1.434 0 0 1 .2-.019l5.635-.526 5.491 7.386-.541 7.575c.388 1.563 1.265 4.765 2.174 5.8 1.22 1.395 2.556 5.287 2.556 5.287l-1.336-.523-1.133.058 2.157 7.844s1.881 5.926 2.637 9.064a35.4 35.4 0 0 0 1.235 4.048l8.258-1.855-8.1 2.273a4.945 4.945 0 0 0 .7 1.4 5.07 5.07 0 0 0 .914.175l1.375-1.5 5.112-1.482 1.337.567.217 1.813s0-.328.041-.82-.369-8.285-.595-9.679-.8-2.953-.636-4.019a44.786 44.786 0 0 0-1.887-10.253c-.779-1.723-2.994-.205-2.994-.205l1.234 5.34-2.658.937v2.593l-.566 1.177h-1.482l-.915-.7-.3-1.7.654.784.828.871h.915l.567-3.617 2.484-.652-.754-5.036-.451-2.092c-.39-1.807-2.25-9.524-2.748-11.588l-1.668.892-4.358 2.44-2.593-.655 2.026.219s2.745-1.177 2.876-1.177 2.963-1.917 3.181-2a10.659 10.659 0 0 0 1.15-1.7h.9s.41-.451 1.969-1.887 2.338-3.035 2.256-3.773a3.154 3.154 0 0 1 .41-2.051c.41-.779 3.322-8.079 3.322-8.2s-3.035-2.871-3.035-2.871l32.646-12.55-26.822 8.038v-.041l-7.989 2.94 2.956 2.333-3-2.053-3.544 3.69-9.878 5.81 9.587-6.072 1.686-1.739-2.471-1.951-1.912.945.111.13-.138-.116-10.416 5.15 10.193-5.323-1.477-1.243-8.425 3.98 8.541-4.456 1.43 1.682 2.143-1.119 1.28 1.211 11.314-4c-.037-3.6-2.584-3.564-2.584-3.564l-25.469 8.9.9-14.682s.41-1.517-1.558-1.517-1.8 1.394-1.8 1.394v6.48l-3.4 5.373-.943-11.525-.118 9.91v1.383l-.741.915v2.048l-.283-2.135.828-1 .078-1.048-1.2-2.36-.943-2.01-.861-.328s-1.435-1.763-2.051-1.846a24.487 24.487 0 0 0-3.322.369l-1.476-3.4 2.519 11.41-.784.741a13.2 13.2 0 0 0 .784 1.612l-1.259-1.525.78-.828-2.039-11.41.451 4.142a4.3 4.3 0 0 0-.943 1.312c-.082.451.738 1.969.369 2.133s-1.846 1.271-1.8 1.148-7.464-7.054-8.161-7.71-1.313-.041-.656.738c.551.654 5.116 6.363 6.57 8.181l.442.553 2.362 3v3.2l-1.946.378 1.743-.676-.029-2.636-2.172-3.23a18.25 18.25 0 0 0-1.84 1.483c0 .123.082.861.082 2.42a19.159 19.159 0 0 0 .246 2.953 4.369 4.369 0 0 0-.7 2.3l-1.64.164-4.84-.656c.123-1.517-.164-2.707-.369-2.666s-3.158-1.354-3.527-1.435-.287.533-.287.533l-4.552-2.051-1.353-10.048s-.492-.738-.779-1.23.287-.943.287-.943l-.328-2.666a1.488 1.488 0 0 0-1.983-1.28c-1.845.328-1.353 1.559-1.353 1.559l.328 2.912a1 1 0 0 1 .615.7c.123.533-.369.205-.328.82s1.107 9.064 1.107 9.064l-1.435-.861-3.117 1.8-2.543-2.01-2.461 1.928L11.483.004a8.415 8.415 0 0 0-1.6.246c-.41.164-.615 3.65-.615 3.65L-.001 0l.369 4.593s1.8 1.189 2.01 1.23 4.224 1.476 4.224 1.476l1.066-.41 5.7 2.461v.82l.574-.246 9.269 4.552.287.984 1.025-.369 4.47 1.969v1.148l1.394-.205 3.978 1.928.246.779.943-.2 9.6 5.044 1.846.451 1.394.984-.123.779 3.9 5.947a13.821 13.821 0 0 1 1.312.574c-.123 0 2.707 5.045 2.707 5.045l-1.025.7a8.724 8.724 0 0 0-1.353 2.091 2.618 2.618 0 0 0 .41 1.477 29.03 29.03 0 0 0-2.01 7.177s-5.578 4.306-5.7 4.47a19.982 19.982 0 0 0-.369 2.379l-.574.164c-.574.164-.615.943-.984 1.354a6.5 6.5 0 0 0-1.107 1.394c-.492.82.164 2.789.164 2.789l-6.685 7.054 2.912-.328 4.06-2.953a6.925 6.925 0 0 1 .287 1.476c0 .533.082 6.193.287 6.931s1.518.984 1.518.984l.574 5.332s.542 3.925 1.682 5.068l.266.209c.369.206.515.338.536.421l.263.207a21.926 21.926 0 0 1 .082 2.461 29.438 29.438 0 0 0 1.025 3.855c.328 1.148 1.025.123 1.517.287s1.395.082 1.517.164a19.723 19.723 0 0 1 2.912 1.928c.246.41.574.246 1.887-.369s5.578-2.5 5.578-2.5-.041 1.189 0 1.435 1.435 4.47 1.435 4.47l2.338 1.148-.615 2.953c-.2.984-1.3 6.521-1.3 6.521l-2.025 3.322-2.5 3.527s-2.83 2.584-3.363 3.2-2.256 3.855-3.158 5.537a16.923 16.923 0 0 0-1.23 4.881c0 2.256-.369 8-.369 8l-4.347 7.669s-3.24 1.682-3.486 1.969-2.256 5.414-2.5 6.193-.574 4.183-.574 4.183l1.682.984.287 1.927s-2.092 8.818-2.215 9.351a2.921 2.921 0 0 0 0 1.107s.861 4.84.943 5.619a1.81 1.81 0 0 0 1.271 1.764c.861.2 5.414.2 6.4.2a4.929 4.929 0 0 0 2.5-.7c.328-.287 5.25-5.7 5.25-5.7l2.789-6.685v-1.4l-1.01.682-13.945-3.312-.784-.872 4.881.436 9.587 2.876 1.271-1.57a5.89 5.89 0 0 1 .745-.013 2.665 2.665 0 0 0 .485-.11 2.028 2.028 0 0 0 1.517-1.928 34.261 34.261 0 0 0 .41-7.013c-.246-2.994-.369-7.751.492-10.171s5.291-6.849 7.218-9.269a13.676 13.676 0 0 0 2.625-6.562c.164-1.23.164-2.789.246-3.937s1.353-3.322 1.435-4.593 0-3.65 0-3.65-2.762 9.77-2.762 10.032-9.849 14.381-9.849 14.381l-6.537-.993 2-8.394-1.133 7.382 5.578 1.012 8.579-12.6 4.119-10.816s4.839-6.357 6.316-8.859 4.593-9.679 4.593-9.679v-1.133l-9.488-8.751 9.488 7.664v-.159a11.892 11.892 0 0 0 1.186 1.118l.5.4c.164.082 1.353.082 1.517-.287s2.994-3.609 2.994-3.609l1.148-.123a4.213 4.213 0 0 0 .779 1.025 2.151 2.151 0 0 0 1.679.492l3.905-1.309 1.628-12.342-.243-5.756.755-2.329-1-4.658s-2.11-.361-2.112-.367l.97 2.55.318 3.154-2.571-.388h1.844l-.291-2.426-1.384-4.448-4.487.276c.266-.044 3.786-.264 4.388-.3a2.277 2.277 0 0 1-.441-.006c-.131-.03-.872-8.654-.828-8.874s2.528-11.52 2.528-11.52l-1.918 11.52.479 8.452.828-8.759 1.133-1.227 1.307-8.361-1.612-2.7 6.375-1.961v-1.046l-6.157 1.787-6.232-.131-3.7-1.22-.7 1.133-10.328-.719 9.805.414 1.22-.828 4.358.828h6.068c-.011-.131.338-2.615.338-2.615l-2.527-4.619-8.934.305 9.108-.828 2.745 5.142-.73 2.615s6.046-1.748 6.173-1.748a7.768 7.768 0 0 1 0 1.743l-6.177 1.961.9 2.484-.9 8.672-.97.872-1.126 9.225.01.031.511-.031.6 1.59s2.112.367 2.646-.66l.789 4.666-.6 3.688.048 6.017-1.037 11.936-4.788 1.114a4.612 4.612 0 0 0 .7-.082v1.763l3.211 9.269.73.123 1.723 3.035s-.082 2.133-.041 2.256-.9.451-.9.451-.479.688-.755 1.2l7.52 1.539 6.7 4.27v1.747h-1.553l4.124 5.58 1.6-4.221zm.7-51.943l2.745-.872-1.264-7.147s-2.092.392-2.222.392l2.745-1.089 1.282 8.059-2.585.959-5.055.61zm-13.829-41.719v6.45s1.6 2.818 2.077 2.934a12.738 12.738 0 0 0 2.135 0l3.167-3.457s1.569-1.627 3.37 1.336c0 0-1.609-2.17-3.138-1.046a19.028 19.028 0 0 0-3.225 3.515h-2.31s-2.339-2.934-2.368-3.08.296-6.652.296-6.652zm-2.324-.668a37.548 37.548 0 0 1 0 6.014v-3.239a14.947 14.947 0 0 0-1-5.757c.1.081.739.682 1.004 2.982zm-53.616 27.09l2.572 1.439 3.254-4.183 5.868 1.8 2.092-5a2.843 2.843 0 0 0-.779-.626l1.534.278-2.5 5.868-6.038-1.736-1.336 1.567-1.854 2.515-3.665-2.108zM71.945 69.55l-2.5.871a22.1 22.1 0 0 1-.872 3.66c-.407.814.872 1.743.872 1.743L64.884 89.56s-.545-2.266-.952-3.545l-.642-1.186a15.086 15.086 0 0 0-1.573-1.276l.01-.017-4.348-1.087 4.749.41.41-.691-7.076-1.43s-4.881 2.235-5.171 2.233l5.113-3.252 7.181 1.273-.345-5.514.281-.443-.111-6.152.693-1.569-1.386-5.752 2.519 5.143-1.133 2.207v5.207c1.543-2.419 4.643-7.243 4.947-7.416h2.092s2.678 2.964 1.806 2.847zm6.652-8.018l-1.655.058-.347 3.2-1.919-1.627-3.544-.407-3.079 3.021s1.453-2.092 1.569-2.266a29.782 29.782 0 0 0 1.394-5.055c-.058-.7.112-4.449.755-4.358 3.254.465 4.3-1.278 4.3-1.278l2.748 5.694zm9.74-30.237l-2.266-1.111-1.678-2.026-.341-3.138-1.816-1 2 .806.327 3.029 1.591 2.026 2.179 1.133v-2.266l.222 2.1zm2.832-2.724s-.283 2.135-.741 2.092a10.039 10.039 0 0 1-1.869-1.613c-.329-.357.245.1.039-.2-.351-.5 1.787 1.525 1.787 1.525l.632-2.092h1.438zm-2.2-3.334l-2.353-2.44c.087.065 2.026 1.438 2.157 1.5s2.419 0 2.419 0l.261.458 1.591-.087.109-.392 2.571-1.482-1.787 2.44zm6.929 1.678a17.286 17.286 0 0 1-.632 3.486 1.106 1.106 0 0 1-1.177.392 45.427 45.427 0 0 1 .283-4.946v4.794s.588.2.872-.7a22.24 22.24 0 0 0 .479-3.159l.828-.806s.632-3.552.632-3.66v-2.157l.24 2.353-.763 3.726zm4.51-1.235l-.262-2.063 4.3-2.324.261 1.017-.465-.668-3.835 2.063.232 2.237h-3.573zm6.344 86.106l-2.814-3.2 2.766 2.62 4.415.922 1.261-1.116 1.317-5.289 2.455-2.911-1.977 3.057-1.213 5.192-1.65 1.747zm22.659 45.9l8.443 2.668h2.281l-1.067-1.989 1.941-1.892 1.508 1.177-1.107-1.641-7.915-5.578-3.353 4.537c-.048.391-.728 2.72-.728 2.72zm-9.753-49.588l1.65-1.65-1.965-2.73-2.751 2.484zm2.286-89.74l-2.6.957.872.825zM46.079 82.725l-15.238 27.229 1.477-.492 15.686-22.375a16.96 16.96 0 0 1-1.922-4.36zm74.21 73.166l3.008 1.213 6.647-2.705 3.547-3.967.082-1.928s-.574-.574-5.988-8.2l-.186-.268-2.939 3.435.534 2.766-1.73 2.377-4.335 1.31-7.327-5.24 2.863 1.7 4.464 3.056 3.542-1.261 1.989-2.086-.679-2.474s2.5-2.441 3.609-3.594c-5.188-7.435-4.152-11-4.152-11l.082-1.722-3.517.594-6.106-8.3 1.643-.34-.1-1.068-6.453-3.882-7.181-2.169a1.388 1.388 0 0 0-.189.479c0 .328.41 5.332.41 5.332l2.338 3.855 1.723 8.777 3.568 3.117.492 8.695-1.517 9.966 7.828 5.181zm6.793-8.54l1.552 2.329 1.262-1.456-.048-1.8a9.34 9.34 0 0 1 .922 1.844l-2.135 2.159-1.941-2.353-7.375 3.542zm-20.767-29.986l-1.7-.34v4.415l-.679-5.046 2.911.534 5.434 2.038 2.086 5.192 5.192 6.211 3.7-1.9c-.007.152-2.54 2.58-2.54 2.58h-1.383s-5.638-6.6-5.645-6.744-2.142-4.9-2.142-4.9zm40.1 43.525l-3.9-3.24v.57l-1.556-1.165s-1.553 1.262-1.407 1.359a22.761 22.761 0 0 1 1.067 2.232l-3.376.291s-8.657-2.572-8.609-2.766 1.5-3.2 1.5-3.2l-6.939 2.766-3.008-1.116-3.979 1.747-7.78-6.006.574.492a26.137 26.137 0 0 0-.738 2.953c-.164 1.107 1.148 2.174 1.763 2.584s6.193 2.5 7.875 3.158 18.5 3.732 21.326 4.265 3.732-.451 3.732-.451l3.2-3.2c.788-.779.254-1.271.254-1.271z"/></svg>