<svg xmlns="http://www.w3.org/2000/svg" width="113.25" height="149.79" viewBox="0 0 113.25 149.79"><path d="M103.441 72.112l.5-1.734s-6.852-9.824-10.831-14.365-14.018-4.623-14.018-4.623l-.858-5.412-22.2 4.071 3 20.353-3.811-20.608-20.736-.507 20.836-.457 22.9-2.911-.009-.059H65.962l-.341-1.407h-7.15a57.354 57.354 0 0 0 6.847-1.252l-.016-.065C77.025 38.761 75.786 19.36 75.786 19.36c6.439-4.375-1.981-7.925-1.981-7.925-1.568-8.5-6.274-6.687-6.274-6.687-2.477-3.22-7.6-3.963-14.777-4.623a23.675 23.675 0 0 0-16.841 4.458c-4.045 3.054-5.614 8.5-6.439 11.145-1.628 5.211-.248 11.228 1.071 14.2.842 1.9 2.19 1.876 3.056 1.613l.888-15.652-.062 15.277c-.248 14.034 7.579 13.621 7.579 13.621v2.972s-4.442.165-6.836.413-3.055.908-3.055 2.064-.083 8.008-.083 8.008l-6.935 10.4-9 4.623-.991-1.4c-4.623-3.055-12.8 3.385-13.869 4.375s-1.238 2.394-1.238 3.963.826 2.889 3.715 5.779c2.054 2.054 3.564 2.189 4.267 2.1l-2.818-5.909s-.271-1.676.966-2.033 6.5-4.777 5.794-5.946-4.019-1.279-7.115 1.779-3.507 4.116-3.507 4.116c.1-1.118 2.541-4.37 4.828-5.641s5.844-1.779 6.353-.3-5.844 6.2-5.844 6.2-1.575.559-.915 1.88 3.132 6.343 3.132 6.343a6.556 6.556 0 0 0 3.859 2.291c9.526 1.711 9.576-4.871 9.576-4.871l8.669-3.3s-.165 4.293-.415 7.265 1.158 2.972 1.158 2.972.33 2.889.33 5.366.248 2.146.991 2.229c.59.065 2.844.391 3.748.523l.379.055-.024.023 24.686 5.427-25.225-4.823c-2.121 3.009-.561 8.95-.239 10.07l5.992 1.766 8.919-5.639-7.6 5.938 5.3 1.32-.13.638-16.174-4.723a1 1 0 0 0-.714.3s-6.439 3.88-8.09 4.871-1.569 2.064-1.569 2.064l11.64 25.1 16.181 6.357 13.04-10.98 13.626 4.21s11.145-24.023 11.227-24.436-3.055-2.394-3.055-2.394c2.477-10.154-2.889-13.621-2.889-13.621l.05-.012c-1.034-.912-3.05-2.443-4.975-2.478-2.744-.051-5.956.581-8.04 4.139a6.913 6.913 0 0 1 5.031-4.271c3.658-.681 6.1-.846 9.12 2.331a30.031 30.031 0 0 0 3.849-1.194c1.486-.66 0-5.7 0-5.7l-.578-2.642.248-3.715-4.026-16.577a102.4 102.4 0 0 0-11.2-.811 7.568 7.568 0 0 1-5.352-2.14 5.3 5.3 0 0 1-1.61-2.027 8.5 8.5 0 0 0 1.61 2.027c2.243 1.714 5.451 1.374 6.33 1.362.825-.012 6.863.569 10.056.883l-.013-.053a5.212 5.212 0 0 1 1.981.248c.743.33 6.522 7.843 6.522 7.843a5.614 5.614 0 0 0 3.137-.165 23.665 23.665 0 0 0-2.642 6.935c-.66 3.632 6.935 7.1 6.935 7.1l2.972-.66 1.43-3.5c-3.4-3.037-8.74-2.246-8.74-2.246s1.016-1.118 4.885-.254a11.3 11.3 0 0 1 5.862 3.229 15.816 15.816 0 0 0 1.765 1.618 2.384 2.384 0 0 0 3.22 0l3.3-8.833c.994-11.557-9.738-10.896-9.738-10.896zm-69.005 66.974l-7.318-16.161 9.757 2.821 8 17.3zm-1.772-27.981l1.716.318-.616-.179a2.927 2.927 0 0 0-1.099-.14z"/></svg>