<svg xmlns="http://www.w3.org/2000/svg" width="104.39" height="138.07" viewBox="0 0 104.39 138.07"><path d="M104.211 3.92c-.342-1.368-.684-2.166-3.99 2.052s-10.373 7.067-10.373 7.067S86.457 4 78.001 2.032C71.964.627 60.058.188 53.739.051V0c-.412 0-.933.012-1.543.022-.609-.01-1.13-.017-1.543-.022v.051c-6.318.136-18.225.575-24.262 1.981C17.935 4 14.544 13.039 14.544 13.039s-7.068-2.85-10.373-7.067S.523 2.552.181 3.92s-.228 20.518.57 26.674 4.9 15.73 12.653 18.808c0 0 .365 17.217 22.948 17.217 0 0-5.963.907-6.761 2.617 0 0-5.211-.811-5.7 0s.5 3.786.5 3.786a26.684 26.684 0 0 0-9.636 13.079s-1.868-1.246-2.422-.692-1.384 3.737-.415 8.719a4.251 4.251 0 0 1 .069 2.63c-.415 1.523-1.73 4.983-2.076 6.644s-1.176 1.591-1.661 3.391-.415 10.657.969 11.972c0 0-1.177-7.266 1.038-10.38 0 0-1.315 7.543.415 10.38 0 0 .9.969.761-.346s-1.453-3.46 1.315-8.3c0 0-.208 6.021.83 8.235s.554.759.554.759-.346-6.5.554-8.51a16.942 16.942 0 0 0 4.014.83c1.8.069 2.976-.208 3.945-1.453s.9-1.938.9-1.938a1.947 1.947 0 0 0 1.661-.554c.9-.761 2.007-1.592.761-4.36a9.927 9.927 0 0 0-2.63-3.806.943.943 0 0 1-.138-1.107l5.259-4.36a18.236 18.236 0 0 0-2.353-1.869s2.907-5.329 4.706-5.951a2 2 0 0 0 1.8 1.176l2.907 5.4s-.478 0-.447 2.422 0 2.976 0 2.976l-1.491.554 1.177 1.453s-7.128 5.605-7.751 12.664c0 0-1.661-1.107-2.145 1.038s-1.107 4.429.069 6.574.831 2.7.831 2.7l.554 4.429a9.636 9.636 0 0 0-5.882 9.758 74.757 74.757 0 0 0 8.3.761c4.982.208 7.807.277 11.966-.623s5.473-1.176 6.027-1.592a3.072 3.072 0 0 0 .969-3.253 57.006 57.006 0 0 1-1.038-7.474c-.069-1.661-.554-1.938-.554-1.938s.554-.138.692-1.038-.069-4.221 0-5.467-1.592-1.73-1.592-1.73 1.262-4.982 2.6-6.021a23.858 23.858 0 0 0 8.765 0c1.341 1.038 2.6 6.021 2.6 6.021s-1.661.484-1.592 1.73-.138 4.567 0 5.467.692 1.038.692 1.038-.484.277-.554 1.938a57.026 57.026 0 0 1-1.038 7.474 3.072 3.072 0 0 0 .969 3.253c.554.415 1.869.692 6.027 1.592s6.983.83 11.966.623a74.753 74.753 0 0 0 8.3-.761 9.635 9.635 0 0 0-5.882-9.758l.554-4.429s-.346-.553.83-2.7.554-4.429.069-6.574-2.145-1.038-2.145-1.038c-.623-7.059-7.751-12.664-7.751-12.664l1.176-1.453-1.491-.554s-.031-.553 0-2.976-.447-2.422-.447-2.422l2.907-5.4a2 2 0 0 0 1.8-1.176c1.8.623 4.706 5.951 4.706 5.951a18.245 18.245 0 0 0-2.353 1.869l5.259 4.36a.943.943 0 0 1-.138 1.107 9.927 9.927 0 0 0-2.63 3.806c-1.246 2.768-.138 3.6.761 4.36a1.947 1.947 0 0 0 1.661.554s-.069.692.9 1.938 2.145 1.522 3.944 1.453a16.94 16.94 0 0 0 4.014-.83c.9 2.007.554 8.51.554 8.51s-.484 1.456.553-.759.831-8.235.831-8.235c2.768 4.844 1.453 6.989 1.315 8.3s.761.346.761.346c1.73-2.837.415-10.38.415-10.38 2.214 3.114 1.038 10.38 1.038 10.38 1.384-1.315 1.453-10.173.969-11.972s-1.315-1.73-1.661-3.391-1.661-5.121-2.076-6.644a4.251 4.251 0 0 1 .069-2.63c.969-4.982.138-8.166-.415-8.719s-2.422.692-2.422.692a26.685 26.685 0 0 0-9.636-13.079s.986-2.976.5-3.786-5.7 0-5.7 0c-.8-1.71-6.761-2.617-6.761-2.617 22.583 0 22.948-17.217 22.948-17.217 7.751-3.078 11.855-12.653 12.653-18.808s.936-25.306.594-26.674zM28.137 46.755c-3.65 0-6.609-3.459-6.609-7.727s2.959-7.727 6.609-7.727 6.608 3.46 6.608 7.727-2.958 7.727-6.608 7.727zm49.615 0c-3.65 0-6.609-3.459-6.609-7.727s2.959-7.727 6.609-7.727 6.608 3.46 6.608 7.727-2.958 7.727-6.607 7.727z"/></svg>