<svg xmlns="http://www.w3.org/2000/svg" width="24" height="24" viewBox="0 0 24 24"><path fill="none" d="M0 0h24v24H0z"/><path d="M16.429 20.626l-.307 1.257q-1.383.546-2.207.831a5.822 5.822 0 0 1-1.914.286 3.821 3.821 0 0 1-2.6-.817 2.643 2.643 0 0 1-.929-2.075 7.339 7.339 0 0 1 .069-1q.071-.511.225-1.153l1.152-4.079q.154-.586.259-1.111a4.827 4.827 0 0 0 .1-.956 1.479 1.479 0 0 0-.323-1.09 1.822 1.822 0 0 0-1.233-.308 3.23 3.23 0 0 0-.916.14c-.314.093-.581.182-.806.265l.308-1.258q1.132-.461 2.167-.789a6.481 6.481 0 0 1 1.96-.329 3.728 3.728 0 0 1 2.565.8 2.667 2.667 0 0 1 .9 2.088c0 .177-.02.49-.062.936a6.26 6.26 0 0 1-.231 1.23l-1.145 4.071a10.791 10.791 0 0 0-.252 1.119 5.76 5.76 0 0 0-.112.949 1.368 1.368 0 0 0 .361 1.1 2.041 2.041 0 0 0 1.256.293 3.625 3.625 0 0 0 .949-.147 5.308 5.308 0 0 0 .766-.253zm.291-17.057a2.377 2.377 0 0 1-.8 1.809 2.733 2.733 0 0 1-1.933.748 2.763 2.763 0 0 1-1.943-.748 2.372 2.372 0 0 1-.81-1.809 2.4 2.4 0 0 1 .81-1.815 2.868 2.868 0 0 1 3.876 0 2.4 2.4 0 0 1 .8 1.815z"/></svg>