<svg xmlns="http://www.w3.org/2000/svg" width="20.23" height="18" viewBox="0 0 20.23 18"><path d="M18.627 1.762A5.44 5.44 0 0 0 14.58 0a5.09 5.09 0 0 0-3.18 1.1 6.5 6.5 0 0 0-1.285 1.342A6.5 6.5 0 0 0 8.831 1.1 5.089 5.089 0 0 0 5.652 0 5.441 5.441 0 0 0 1.6 1.762 6.324 6.324 0 0 0 0 6.08a7.531 7.531 0 0 0 2.007 4.93 42.785 42.785 0 0 0 5.023 4.714c.7.593 1.485 1.266 2.3 1.982a1.188 1.188 0 0 0 1.564 0c.819-.716 1.609-1.389 2.3-1.983a42.769 42.769 0 0 0 5.023-4.714 7.53 7.53 0 0 0 2.006-4.929 6.323 6.323 0 0 0-1.596-4.318z"/></svg>