<svg xmlns="http://www.w3.org/2000/svg" width="30" height="30" viewBox="0 0 30 30"><path fill="none" d="M0 0h30v30H0z"/><path d="M14.92 16.807a.628.628 0 0 1 .763-.006l.009.006 1.979 1.535 4.853-3.374v-7.2H8.069v7.23l4.858 3.358zm-3.888-6.522h8.529a.63.63 0 0 1 .63.63.63.63 0 0 1-.63.63h-8.529a.63.63 0 0 1-.63-.63.63.63 0 0 1 .63-.63zm-.63 3.9a.629.629 0 0 1 .63-.63h8.529a.63.63 0 0 1 .63.63.63.63 0 0 1-.63.63h-8.529a.63.63 0 0 1-.629-.623zm-3.594-2.931l-2.072 1.432 2.072 1.432zm-2.549 2.635l.016 11.165 7.607-5.9zm11.037-8.5l-1.611 1.112h3.21zm8.487 5.9v2.8l2.014-1.4zm3.18 15.652l-23.317.032a.63.63 0 0 1-.63-.628l-.019-13.654v-.011a.63.63 0 0 1 .271-.509l3.538-2.445V7.133a.633.633 0 0 1 .63-.63h4.033l3.468-2.4a.632.632 0 0 1 .718 0l3.446 2.4h4.05a.633.633 0 0 1 .63.63v2.624l3.521 2.447a.628.628 0 0 1 .247.35.366.366 0 0 1 .022.125l.019 13.633a.633.633 0 0 1-.628.632zM5.492 25.718l19.595-.027-9.78-7.586zm13.223-6.564l7.619 5.91-.016-11.2z"/></svg>