<svg xmlns="http://www.w3.org/2000/svg" width="24.59" height="22.98" viewBox="0 0 24.59 22.98"><path d="M11.92 12.807a.628.628 0 0 1 .763-.006l.009.006 1.979 1.535 4.853-3.374v-7.2H5.069v7.23l4.858 3.358zM8.032 6.285h8.529a.63.63 0 0 1 .63.63.63.63 0 0 1-.63.63H8.032a.63.63 0 0 1-.63-.63.63.63 0 0 1 .63-.63zm-.63 3.9a.629.629 0 0 1 .63-.63h8.529a.63.63 0 0 1 .63.63.63.63 0 0 1-.63.63H8.032a.63.63 0 0 1-.629-.623zM3.808 7.254L1.736 8.686l2.072 1.432zM1.259 9.889l.016 11.165 7.607-5.9zm11.037-8.5l-1.611 1.112h3.21zm8.487 5.9v2.8l2.014-1.4zm3.18 15.652l-23.317.032a.63.63 0 0 1-.63-.628L-.003 8.691V8.68a.63.63 0 0 1 .271-.509l3.538-2.445V3.133a.633.633 0 0 1 .63-.63h4.033l3.468-2.4a.632.632 0 0 1 .718 0l3.446 2.4h4.05a.633.633 0 0 1 .63.63v2.624l3.521 2.447a.628.628 0 0 1 .247.35.366.366 0 0 1 .022.125l.019 13.633a.633.633 0 0 1-.628.632zM2.492 21.718l19.595-.027-9.78-7.586zm13.223-6.564l7.619 5.91-.016-11.2z"/></svg>