<svg xmlns="http://www.w3.org/2000/svg" width="21.21" height="22" viewBox="0 0 21.21 22"><path d="M6.694 3.601L10.073.222a.75.75 0 0 1 1.064 0l3.379 3.379a.751.751 0 1 1-1.062 1.062l-2.089-2.089.058 8.726a.75.75 0 0 1-.747.743.747.747 0 0 1-.751-.729l-.059-8.759-2.109 2.109a.751.751 0 0 1-1.062-1.062zm13.732 9.685l-7.935 7.933a2.675 2.675 0 0 1-3.776 0L.78 13.284a2.675 2.675 0 0 1 0-3.776l3.18-3.18a.75.75 0 0 1 1.062 0l.012.013a.724.724 0 0 1 .209.516.749.749 0 0 1-.221.533l-3.181 3.18a1.167 1.167 0 0 0 0 1.65l7.937 7.937a1.166 1.166 0 0 0 1.649 0l7.938-7.938a1.166 1.166 0 0 0 0-1.649l-3.18-3.18a.752.752 0 0 1 1.063-1.065l3.182 3.182a2.675 2.675 0 0 1-.004 3.779z"/></svg>