<svg xmlns="http://www.w3.org/2000/svg" width="17.53" height="17.53" viewBox="0 0 17.53 17.53"><path d="M.276 0h7.146A.276.276 0 0 1 7.7.276v7.146a.276.276 0 0 1-.276.276H.276A.276.276 0 0 1 0 7.422V.276A.276.276 0 0 1 .276 0zm9.83 0h7.145a.276.276 0 0 1 .276.276v7.146a.276.276 0 0 1-.276.276h-7.145a.276.276 0 0 1-.276-.276V.276A.276.276 0 0 1 10.106 0zM.276 9.83h7.146a.276.276 0 0 1 .276.276v7.145a.276.276 0 0 1-.276.276H.276A.276.276 0 0 1 0 17.252v-7.145a.276.276 0 0 1 .276-.277zm9.83 0h7.145a.276.276 0 0 1 .276.276v7.145a.276.276 0 0 1-.276.276h-7.145a.276.276 0 0 1-.276-.276v-7.145a.276.276 0 0 1 .276-.276zm0 0"/></svg>