<svg xmlns="http://www.w3.org/2000/svg" width="24" height="24" viewBox="0 0 24 24"><path fill="none" d="M0 0h24v24H0z"/><path d="M3.276 3h7.146a.276.276 0 0 1 .278.276v7.146a.276.276 0 0 1-.276.276H3.276A.276.276 0 0 1 3 10.422V3.276A.276.276 0 0 1 3.276 3zm9.83 0h7.145a.276.276 0 0 1 .276.276v7.146a.276.276 0 0 1-.276.276h-7.145a.276.276 0 0 1-.276-.276V3.276A.276.276 0 0 1 13.106 3zm-9.83 9.83h7.146a.276.276 0 0 1 .276.276v7.145a.276.276 0 0 1-.276.276H3.276A.276.276 0 0 1 3 20.252v-7.145a.276.276 0 0 1 .276-.277zm9.83 0h7.145a.276.276 0 0 1 .276.276v7.145a.276.276 0 0 1-.276.276h-7.145a.276.276 0 0 1-.276-.276v-7.145a.276.276 0 0 1 .276-.276zm0 0"/></svg>